<svg width="16" height="15" viewBox="0 0 16 15" fill="none" xmlns="http://www.w3.org/2000/svg">
<g clip-path="url(#clip0_1138_1751)">
<path d="M1.90228 3.65625H3.17046H13.3159" stroke="black" stroke-width="2" stroke-linecap="round" stroke-linejoin="round"/>
<path d="M12.0477 3.65625V12.1875C12.0477 12.5107 11.9141 12.8207 11.6763 13.0493C11.4384 13.2778 11.1159 13.4062 10.7795 13.4062H4.43862C4.10228 13.4062 3.77971 13.2778 3.54188 13.0493C3.30405 12.8207 3.17044 12.5107 3.17044 12.1875V3.65625M5.07271 3.65625V2.4375C5.07271 2.11427 5.20633 1.80427 5.44416 1.57571C5.68199 1.34715 6.00455 1.21875 6.3409 1.21875H8.87726C9.2136 1.21875 9.53617 1.34715 9.774 1.57571C10.0118 1.80427 10.1454 2.11427 10.1454 2.4375V3.65625" stroke="black" stroke-width="2" stroke-linecap="round" stroke-linejoin="round"/>
<path d="M6.34091 6.70312V10.3594" stroke="black" stroke-width="2" stroke-linecap="round" stroke-linejoin="round"/>
<path d="M8.87726 6.70312V10.3594" stroke="black" stroke-width="2" stroke-linecap="round" stroke-linejoin="round"/>
</g>
<defs>
<clipPath id="clip0_1138_1751">
<rect width="15.2182" height="14.625" fill="white"/>
</clipPath>
</defs>
</svg>
