<svg width="15" height="14" viewBox="0 0 15 14" fill="none" xmlns="http://www.w3.org/2000/svg">
<g clip-path="url(#clip0_1138_1748)">
<path d="M6.5875 2.30209H2.39545C2.07779 2.30209 1.77315 2.42336 1.54853 2.63923C1.32391 2.85509 1.19772 3.14786 1.19772 3.45314V11.5104C1.19772 11.8157 1.32391 12.1085 1.54853 12.3243C1.77315 12.5402 2.07779 12.6615 2.39545 12.6615H10.7795C11.0972 12.6615 11.4018 12.5402 11.6265 12.3243C11.8511 12.1085 11.9773 11.8157 11.9773 11.5104V7.48178" stroke="black" stroke-width="2" stroke-linecap="round" stroke-linejoin="round"/>
<path d="M11.079 1.43879C11.3172 1.20983 11.6404 1.08121 11.9773 1.08121C12.3142 1.08121 12.6373 1.20983 12.8756 1.43879C13.1138 1.66775 13.2477 1.97828 13.2477 2.30207C13.2477 2.62586 13.1138 2.9364 12.8756 3.16535L7.18638 8.6328L4.79092 9.20832L5.38979 6.90624L11.079 1.43879Z" stroke="black" stroke-width="2" stroke-linecap="round" stroke-linejoin="round"/>
</g>
<defs>
<clipPath id="clip0_1138_1748">
<rect width="14.3727" height="13.8125" fill="white"/>
</clipPath>
</defs>
</svg>
