<svg width="18" height="17" viewBox="0 0 18 17" fill="none" xmlns="http://www.w3.org/2000/svg">
<g clip-path="url(#clip0_1278_394)">
<path d="M8.90723 10.4728C10.1371 10.4728 11.134 9.53507 11.134 8.37828C11.134 7.22148 10.1371 6.28371 8.90723 6.28371C7.6774 6.28371 6.68042 7.22148 6.68042 8.37828C6.68042 9.53507 7.6774 10.4728 8.90723 10.4728Z" stroke="white" stroke-width="2" stroke-linecap="round" stroke-linejoin="round"/>
<path d="M14.3999 10.4728C14.3011 10.6834 14.2716 10.917 14.3153 11.1435C14.359 11.37 14.4737 11.579 14.6449 11.7435L14.6894 11.7854C14.8274 11.9151 14.9369 12.0691 15.0116 12.2386C15.0863 12.4082 15.1248 12.5899 15.1248 12.7734C15.1248 12.9569 15.0863 13.1386 15.0116 13.3081C14.9369 13.4776 14.8274 13.6316 14.6894 13.7613C14.5515 13.8911 14.3878 13.9941 14.2076 14.0644C14.0274 14.1347 13.8342 14.1708 13.6391 14.1708C13.444 14.1708 13.2508 14.1347 13.0706 14.0644C12.8904 13.9941 12.7267 13.8911 12.5888 13.7613L12.5442 13.7194C12.3693 13.5585 12.1471 13.4505 11.9063 13.4094C11.6655 13.3683 11.4172 13.3961 11.1933 13.489C10.9738 13.5775 10.7865 13.7245 10.6546 13.9118C10.5228 14.0991 10.452 14.3186 10.451 14.5433V14.662C10.451 15.0323 10.2946 15.3875 10.0162 15.6494C9.73782 15.9112 9.36022 16.0583 8.96649 16.0583C8.57277 16.0583 8.19517 15.9112 7.91676 15.6494C7.63836 15.3875 7.48195 15.0323 7.48195 14.662V14.5991C7.4762 14.368 7.39668 14.1439 7.25371 13.9559C7.11074 13.7679 6.91095 13.6247 6.6803 13.5449C6.45642 13.4519 6.20807 13.4242 5.96728 13.4653C5.72649 13.5063 5.5043 13.6143 5.32936 13.7753L5.28483 13.8172C5.14695 13.947 4.98323 14.05 4.803 14.1203C4.62278 14.1905 4.42961 14.2267 4.23451 14.2267C4.03942 14.2267 3.84624 14.1905 3.66602 14.1203C3.4858 14.05 3.32207 13.947 3.1842 13.8172C3.04617 13.6875 2.93667 13.5335 2.86196 13.3639C2.78726 13.1944 2.7488 13.0127 2.7488 12.8292C2.7488 12.6457 2.78726 12.464 2.86196 12.2945C2.93667 12.125 3.04617 11.971 3.1842 11.8413L3.22874 11.7994C3.39986 11.6348 3.51465 11.4259 3.55831 11.1994C3.60197 10.9729 3.57249 10.7393 3.47369 10.5287C3.37959 10.3222 3.22336 10.1461 3.02421 10.022C2.82507 9.89797 2.59171 9.8314 2.35286 9.8305H2.22667C1.83294 9.8305 1.45534 9.68338 1.17694 9.42151C0.898533 9.15964 0.742126 8.80447 0.742126 8.43412C0.742126 8.06378 0.898533 7.70861 1.17694 7.44674C1.45534 7.18487 1.83294 7.03775 2.22667 7.03775H2.29347C2.53916 7.03234 2.77744 6.95754 2.97733 6.82306C3.17722 6.68859 3.32947 6.50066 3.4143 6.28371C3.51311 6.07312 3.54259 5.83952 3.49893 5.61303C3.45527 5.38655 3.34047 5.17755 3.16935 5.013L3.12482 4.97111C2.98679 4.84143 2.87729 4.68742 2.80258 4.5179C2.72787 4.34839 2.68942 4.16668 2.68942 3.98317C2.68942 3.79967 2.72787 3.61796 2.80258 3.44845C2.87729 3.27893 2.98679 3.12492 3.12482 2.99524C3.26269 2.86541 3.42642 2.76241 3.60664 2.69214C3.78686 2.62187 3.98004 2.5857 4.17513 2.5857C4.37022 2.5857 4.5634 2.62187 4.74362 2.69214C4.92384 2.76241 5.08757 2.86541 5.22545 2.99524L5.26998 3.03713C5.44492 3.19809 5.66711 3.30606 5.9079 3.34713C6.14869 3.3882 6.39704 3.36047 6.62092 3.26753H6.6803C6.89984 3.17903 7.08707 3.03207 7.21896 2.84475C7.35084 2.65744 7.42162 2.43794 7.42257 2.21327V2.09458C7.42257 1.72423 7.57898 1.36906 7.85738 1.10719C8.13579 0.845317 8.51339 0.698199 8.90711 0.698199C9.30084 0.698199 9.67844 0.845317 9.95684 1.10719C10.2352 1.36906 10.3917 1.72423 10.3917 2.09458V2.15741C10.3926 2.38208 10.4634 2.60158 10.5953 2.7889C10.7271 2.97622 10.9144 3.12317 11.1339 3.21168C11.3578 3.30462 11.6062 3.33234 11.8469 3.29127C12.0877 3.25021 12.3099 3.14223 12.4849 2.98127L12.5294 2.93938C12.6673 2.80955 12.831 2.70656 13.0112 2.63629C13.1914 2.56601 13.3846 2.52984 13.5797 2.52984C13.7748 2.52984 13.968 2.56601 14.1482 2.63629C14.3284 2.70656 14.4922 2.80955 14.63 2.93938C14.7681 3.06907 14.8776 3.22307 14.9523 3.39259C15.027 3.56211 15.0654 3.74381 15.0654 3.92732C15.0654 4.11083 15.027 4.29253 14.9523 4.46205C14.8776 4.63157 14.7681 4.78557 14.63 4.91526L14.5855 4.95715C14.4144 5.1217 14.2996 5.33069 14.2559 5.55718C14.2123 5.78367 14.2417 6.01727 14.3405 6.22785V6.28371C14.4346 6.49021 14.5909 6.66632 14.79 6.79038C14.9892 6.91443 15.2225 6.981 15.4614 6.98189H15.5876C15.9813 6.98189 16.3589 7.12901 16.6373 7.39088C16.9157 7.65275 17.0721 8.00793 17.0721 8.37827C17.0721 8.74861 16.9157 9.10379 16.6373 9.36566C16.3589 9.62753 15.9813 9.77465 15.5876 9.77465H15.5208C15.2819 9.77554 15.0485 9.84211 14.8494 9.96616C14.6502 10.0902 14.494 10.2663 14.3999 10.4728Z" stroke="#C2BBBB" stroke-width="2" stroke-linecap="round" stroke-linejoin="round"/>
</g>
<defs>
<clipPath id="clip0_1278_394">
<rect width="17.8145" height="16.7565" fill="white"/>
</clipPath>
</defs>
</svg>
