<svg width="47" height="48" viewBox="0 0 47 48" fill="none" xmlns="http://www.w3.org/2000/svg">
<g clip-path="url(#clip0_1278_407)">
<g filter="url(#filter0_dd_1278_407)">
<path fill-rule="evenodd" clip-rule="evenodd" d="M40.7463 15.2471L39.5274 13.087C38.4962 11.2591 36.2109 10.6286 34.4187 11.6773C33.5656 12.1906 32.5476 12.3362 31.5892 12.0821C30.6309 11.828 29.8109 11.1949 29.31 10.3227C28.9878 9.76821 28.8147 9.1367 28.8081 8.49199C28.8372 7.45836 28.4553 6.45672 27.7496 5.71525C27.0438 4.97379 26.0742 4.55564 25.0617 4.55606H22.606C21.614 4.55606 20.6629 4.95974 19.9632 5.6778C19.2635 6.39586 18.8727 7.3691 18.8775 8.38215C18.8481 10.4738 17.1794 12.1535 15.1311 12.1533C14.4999 12.1466 13.8815 11.9698 13.3386 11.6407C11.5464 10.5919 9.26113 11.2225 8.22992 13.0503L6.92138 15.2471C5.89142 17.0727 6.50044 19.4051 8.2837 20.4645C9.44284 21.148 10.1569 22.4111 10.1569 23.778C10.1569 25.145 9.44284 26.4081 8.2837 27.0915C6.50271 28.1438 5.89302 30.4706 6.92138 32.2906L8.15822 34.4691C8.64138 35.3595 9.45205 36.0165 10.4108 36.2948C11.3696 36.5731 12.3975 36.4497 13.2669 35.9519C14.1216 35.4426 15.1402 35.303 16.0962 35.5643C17.0521 35.8256 17.8663 36.466 18.3577 37.3433C18.6799 37.8977 18.853 38.5292 18.8596 39.1739C18.8596 41.287 20.5369 43 22.606 43H25.0617C27.1238 43 28.7982 41.2982 28.8081 39.1922C28.8033 38.176 29.1965 37.2 29.9001 36.4814C30.6037 35.7628 31.5594 35.3612 32.5545 35.3661C33.1842 35.3834 33.8001 35.5594 34.347 35.8787C36.1345 36.9306 38.4184 36.3086 39.4557 34.4874L40.7463 32.2906C41.2459 31.4149 41.383 30.3719 41.1273 29.3927C40.8716 28.4134 40.2442 27.5786 39.384 27.0732C38.5238 26.5678 37.8964 25.7331 37.6407 24.7538C37.385 23.7745 37.5221 22.7315 38.0217 21.8558C38.3465 21.2766 38.8168 20.7963 39.384 20.4645C41.1566 19.4057 41.7642 17.0869 40.7463 15.2654V15.2471Z" stroke="#C2BBBB" stroke-width="3" stroke-linecap="round" stroke-linejoin="round"/>
</g>
<g opacity="0.4" filter="url(#filter1_dd_1278_407)">
<path d="M23.8428 29.0503C26.694 29.0503 29.0053 26.6899 29.0053 23.778C29.0053 20.8662 26.694 18.5057 23.8428 18.5057C20.9917 18.5057 18.6804 20.8662 18.6804 23.778C18.6804 26.6899 20.9917 29.0503 23.8428 29.0503Z" stroke="#C2BBBB" stroke-width="3" stroke-linecap="round" stroke-linejoin="round"/>
</g>
</g>
<defs>
<filter id="filter0_dd_1278_407" x="-13.0793" y="-6.94394" width="73.8325" height="77.4439" filterUnits="userSpaceOnUse" color-interpolation-filters="sRGB">
<feFlood flood-opacity="0" result="BackgroundImageFix"/>
<feColorMatrix in="SourceAlpha" type="matrix" values="0 0 0 0 0 0 0 0 0 0 0 0 0 0 0 0 0 0 127 0" result="hardAlpha"/>
<feOffset dy="4"/>
<feGaussianBlur stdDeviation="2"/>
<feColorMatrix type="matrix" values="0 0 0 0 0 0 0 0 0 0 0 0 0 0 0 0 0 0 0.3 0"/>
<feBlend mode="normal" in2="BackgroundImageFix" result="effect1_dropShadow_1278_407"/>
<feColorMatrix in="SourceAlpha" type="matrix" values="0 0 0 0 0 0 0 0 0 0 0 0 0 0 0 0 0 0 127 0" result="hardAlpha"/>
<feMorphology radius="6" operator="dilate" in="SourceAlpha" result="effect2_dropShadow_1278_407"/>
<feOffset dy="8"/>
<feGaussianBlur stdDeviation="6"/>
<feColorMatrix type="matrix" values="0 0 0 0 0 0 0 0 0 0 0 0 0 0 0 0 0 0 0.15 0"/>
<feBlend mode="normal" in2="effect1_dropShadow_1278_407" result="effect2_dropShadow_1278_407"/>
<feBlend mode="normal" in="SourceGraphic" in2="effect2_dropShadow_1278_407" result="shape"/>
</filter>
<filter id="filter1_dd_1278_407" x="-0.819641" y="7.00572" width="49.325" height="49.5446" filterUnits="userSpaceOnUse" color-interpolation-filters="sRGB">
<feFlood flood-opacity="0" result="BackgroundImageFix"/>
<feColorMatrix in="SourceAlpha" type="matrix" values="0 0 0 0 0 0 0 0 0 0 0 0 0 0 0 0 0 0 127 0" result="hardAlpha"/>
<feOffset dy="4"/>
<feGaussianBlur stdDeviation="2"/>
<feColorMatrix type="matrix" values="0 0 0 0 0 0 0 0 0 0 0 0 0 0 0 0 0 0 0.3 0"/>
<feBlend mode="normal" in2="BackgroundImageFix" result="effect1_dropShadow_1278_407"/>
<feColorMatrix in="SourceAlpha" type="matrix" values="0 0 0 0 0 0 0 0 0 0 0 0 0 0 0 0 0 0 127 0" result="hardAlpha"/>
<feMorphology radius="6" operator="dilate" in="SourceAlpha" result="effect2_dropShadow_1278_407"/>
<feOffset dy="8"/>
<feGaussianBlur stdDeviation="6"/>
<feColorMatrix type="matrix" values="0 0 0 0 0 0 0 0 0 0 0 0 0 0 0 0 0 0 0.15 0"/>
<feBlend mode="normal" in2="effect1_dropShadow_1278_407" result="effect2_dropShadow_1278_407"/>
<feBlend mode="normal" in="SourceGraphic" in2="effect2_dropShadow_1278_407" result="shape"/>
</filter>
<clipPath id="clip0_1278_407">
<rect width="47" height="48" fill="white"/>
</clipPath>
</defs>
</svg>
