<svg width="18" height="17" viewBox="0 0 18 17" fill="none" xmlns="http://www.w3.org/2000/svg">
<g clip-path="url(#clip0_1281_832)">
<path d="M8.90723 10.4728C10.1371 10.4728 11.134 9.53507 11.134 8.37828C11.134 7.22148 10.1371 6.28371 8.90723 6.28371C7.6774 6.28371 6.68042 7.22148 6.68042 8.37828C6.68042 9.53507 7.6774 10.4728 8.90723 10.4728Z" stroke="white" stroke-width="2" stroke-linecap="round" stroke-linejoin="round"/>
<path d="M14.4 10.4728C14.3012 10.6834 14.2717 10.917 14.3154 11.1435C14.359 11.37 14.4738 11.579 14.6449 11.7435L14.6895 11.7854C14.8275 11.9151 14.937 12.0691 15.0117 12.2386C15.0864 12.4082 15.1249 12.5899 15.1249 12.7734C15.1249 12.9569 15.0864 13.1386 15.0117 13.3081C14.937 13.4776 14.8275 13.6316 14.6895 13.7613C14.5516 13.8911 14.3879 13.9941 14.2076 14.0644C14.0274 14.1347 13.8342 14.1708 13.6392 14.1708C13.4441 14.1708 13.2509 14.1347 13.0707 14.0644C12.8904 13.9941 12.7267 13.8911 12.5888 13.7613L12.5443 13.7194C12.3694 13.5585 12.1472 13.4505 11.9064 13.4094C11.6656 13.3683 11.4172 13.3961 11.1934 13.489C10.9738 13.5775 10.7866 13.7245 10.6547 13.9118C10.5228 14.0991 10.4521 14.3186 10.4511 14.5433V14.662C10.4511 15.0323 10.2947 15.3875 10.0163 15.6494C9.73788 15.9112 9.36028 16.0583 8.96656 16.0583C8.57283 16.0583 8.19523 15.9112 7.91683 15.6494C7.63842 15.3875 7.48201 15.0323 7.48201 14.662V14.5991C7.47626 14.368 7.39674 14.1439 7.25377 13.9559C7.1108 13.7679 6.91101 13.6247 6.68036 13.5449C6.45648 13.4519 6.20813 13.4242 5.96734 13.4653C5.72655 13.5063 5.50436 13.6143 5.32942 13.7753L5.28489 13.8172C5.14701 13.947 4.98329 14.05 4.80307 14.1203C4.62284 14.1905 4.42967 14.2267 4.23457 14.2267C4.03948 14.2267 3.8463 14.1905 3.66608 14.1203C3.48586 14.05 3.32213 13.947 3.18426 13.8172C3.04623 13.6875 2.93673 13.5335 2.86203 13.3639C2.78732 13.1944 2.74886 13.0127 2.74886 12.8292C2.74886 12.6457 2.78732 12.464 2.86203 12.2945C2.93673 12.125 3.04623 11.971 3.18426 11.8413L3.2288 11.7994C3.39992 11.6348 3.51471 11.4259 3.55837 11.1994C3.60203 10.9729 3.57255 10.7393 3.47375 10.5287C3.37965 10.3222 3.22342 10.1461 3.02428 10.022C2.82513 9.89797 2.59177 9.8314 2.35292 9.8305H2.22673C1.83301 9.8305 1.45541 9.68338 1.177 9.42151C0.898594 9.15964 0.742188 8.80447 0.742188 8.43412C0.742188 8.06378 0.898594 7.70861 1.177 7.44674C1.45541 7.18487 1.83301 7.03775 2.22673 7.03775H2.29353C2.53922 7.03234 2.7775 6.95754 2.97739 6.82306C3.17728 6.68859 3.32953 6.50066 3.41436 6.28371C3.51317 6.07312 3.54265 5.83952 3.49899 5.61303C3.45533 5.38655 3.34054 5.17755 3.16942 5.013L3.12488 4.97111C2.98685 4.84143 2.87735 4.68742 2.80264 4.5179C2.72794 4.34839 2.68948 4.16668 2.68948 3.98317C2.68948 3.79967 2.72794 3.61796 2.80264 3.44845C2.87735 3.27893 2.98685 3.12492 3.12488 2.99524C3.26275 2.86541 3.42648 2.76241 3.6067 2.69214C3.78692 2.62187 3.9801 2.5857 4.17519 2.5857C4.37028 2.5857 4.56346 2.62187 4.74368 2.69214C4.9239 2.76241 5.08763 2.86541 5.22551 2.99524L5.27004 3.03713C5.44498 3.19809 5.66717 3.30606 5.90796 3.34713C6.14875 3.3882 6.3971 3.36047 6.62098 3.26753H6.68036C6.8999 3.17903 7.08714 3.03207 7.21902 2.84475C7.3509 2.65744 7.42168 2.43794 7.42263 2.21327V2.09458C7.42263 1.72423 7.57904 1.36906 7.85744 1.10719C8.13585 0.845317 8.51345 0.698199 8.90717 0.698199C9.3009 0.698199 9.6785 0.845317 9.9569 1.10719C10.2353 1.36906 10.3917 1.72423 10.3917 2.09458V2.15741C10.3927 2.38208 10.4634 2.60158 10.5953 2.7889C10.7272 2.97622 10.9144 3.12317 11.134 3.21168C11.3579 3.30462 11.6062 3.33234 11.847 3.29127C12.0878 3.25021 12.31 3.14223 12.4849 2.98127L12.5295 2.93938C12.6673 2.80955 12.8311 2.70656 13.0113 2.63629C13.1915 2.56601 13.3847 2.52984 13.5798 2.52984C13.7749 2.52984 13.968 2.56601 14.1483 2.63629C14.3285 2.70656 14.4922 2.80955 14.6301 2.93938C14.7681 3.06907 14.8776 3.22307 14.9523 3.39259C15.027 3.56211 15.0655 3.74381 15.0655 3.92732C15.0655 4.11083 15.027 4.29253 14.9523 4.46205C14.8776 4.63157 14.7681 4.78557 14.6301 4.91526L14.5855 4.95715C14.4144 5.1217 14.2996 5.33069 14.256 5.55718C14.2123 5.78367 14.2418 6.01727 14.3406 6.22785V6.28371C14.4347 6.49021 14.5909 6.66632 14.7901 6.79038C14.9892 6.91443 15.2226 6.981 15.4614 6.98189H15.5876C15.9813 6.98189 16.3589 7.12901 16.6373 7.39088C16.9158 7.65275 17.0722 8.00793 17.0722 8.37827C17.0722 8.74861 16.9158 9.10379 16.6373 9.36566C16.3589 9.62753 15.9813 9.77465 15.5876 9.77465H15.5208C15.282 9.77554 15.0486 9.84211 14.8495 9.96616C14.6503 10.0902 14.4941 10.2663 14.4 10.4728Z" stroke="#C2BBBB" stroke-width="2" stroke-linecap="round" stroke-linejoin="round"/>
</g>
<defs>
<clipPath id="clip0_1281_832">
<rect width="17.8145" height="16.7565" fill="white"/>
</clipPath>
</defs>
</svg>
