<svg width="47" height="48" viewBox="0 0 47 48" fill="none" xmlns="http://www.w3.org/2000/svg">
<g clip-path="url(#clip0_1284_337)">
<g filter="url(#filter0_dd_1284_337)">
<path fill-rule="evenodd" clip-rule="evenodd" d="M40.7464 15.2471L39.5275 13.0869C38.4963 11.2591 36.211 10.6285 34.4188 11.6773C33.5657 12.1906 32.5477 12.3362 31.5893 12.0821C30.6309 11.8279 29.8109 11.1949 29.3101 10.3226C28.9879 9.76818 28.8147 9.13667 28.8082 8.49196C28.8372 7.45832 28.4554 6.45668 27.7496 5.71522C27.0439 4.97375 26.0743 4.5556 25.0618 4.55603H22.606C21.6141 4.55603 20.663 4.95971 19.9633 5.67777C19.2635 6.39583 18.8728 7.36906 18.8776 8.38212C18.8482 10.4737 17.1794 12.1535 15.1312 12.1533C14.4999 12.1466 13.8816 11.9698 13.3387 11.6407C11.5465 10.5919 9.26119 11.2225 8.22998 13.0503L6.92144 15.2471C5.89148 17.0727 6.5005 19.4051 8.28376 20.4645C9.4429 21.148 10.157 22.4111 10.157 23.778C10.157 25.1449 9.4429 26.408 8.28376 27.0915C6.50277 28.1438 5.89308 30.4705 6.92144 32.2906L8.15828 34.4691C8.64144 35.3594 9.45211 36.0165 10.4109 36.2948C11.3697 36.5731 12.3975 36.4497 13.267 35.9519C14.1217 35.4426 15.1403 35.303 16.0962 35.5643C17.0522 35.8255 17.8663 36.466 18.3577 37.3432C18.68 37.8977 18.8531 38.5292 18.8597 39.1739C18.8597 41.287 20.537 43 22.606 43H25.0618C27.1239 43 28.7983 41.2981 28.8082 39.1922C28.8034 38.1759 29.1965 37.1999 29.9002 36.4813C30.6038 35.7627 31.5595 35.3612 32.5545 35.3661C33.1843 35.3833 33.8001 35.5594 34.3471 35.8787C36.1346 36.9306 38.4184 36.3086 39.4558 34.4874L40.7464 32.2906C41.2459 31.4149 41.3831 30.3719 41.1274 29.3926C40.8717 28.4134 40.2442 27.5786 39.3841 27.0732C38.5239 26.5678 37.8965 25.733 37.6408 24.7538C37.3851 23.7745 37.5222 22.7315 38.0217 21.8558C38.3466 21.2765 38.8169 20.7963 39.3841 20.4645C41.1566 19.4057 41.7642 17.0869 40.7464 15.2654V15.2471Z" stroke="#C2BBBB" stroke-width="3" stroke-linecap="round" stroke-linejoin="round"/>
</g>
<g opacity="0.4" filter="url(#filter1_dd_1284_337)">
<path d="M23.8429 29.0504C26.694 29.0504 29.0054 26.6899 29.0054 23.778C29.0054 20.8662 26.694 18.5057 23.8429 18.5057C20.9917 18.5057 18.6804 20.8662 18.6804 23.778C18.6804 26.6899 20.9917 29.0504 23.8429 29.0504Z" stroke="#C2BBBB" stroke-width="3" stroke-linecap="round" stroke-linejoin="round"/>
</g>
</g>
<defs>
<filter id="filter0_dd_1284_337" x="-13.0792" y="-6.94397" width="73.8325" height="77.4439" filterUnits="userSpaceOnUse" color-interpolation-filters="sRGB">
<feFlood flood-opacity="0" result="BackgroundImageFix"/>
<feColorMatrix in="SourceAlpha" type="matrix" values="0 0 0 0 0 0 0 0 0 0 0 0 0 0 0 0 0 0 127 0" result="hardAlpha"/>
<feOffset dy="4"/>
<feGaussianBlur stdDeviation="2"/>
<feColorMatrix type="matrix" values="0 0 0 0 0 0 0 0 0 0 0 0 0 0 0 0 0 0 0.3 0"/>
<feBlend mode="normal" in2="BackgroundImageFix" result="effect1_dropShadow_1284_337"/>
<feColorMatrix in="SourceAlpha" type="matrix" values="0 0 0 0 0 0 0 0 0 0 0 0 0 0 0 0 0 0 127 0" result="hardAlpha"/>
<feMorphology radius="6" operator="dilate" in="SourceAlpha" result="effect2_dropShadow_1284_337"/>
<feOffset dy="8"/>
<feGaussianBlur stdDeviation="6"/>
<feColorMatrix type="matrix" values="0 0 0 0 0 0 0 0 0 0 0 0 0 0 0 0 0 0 0.15 0"/>
<feBlend mode="normal" in2="effect1_dropShadow_1284_337" result="effect2_dropShadow_1284_337"/>
<feBlend mode="normal" in="SourceGraphic" in2="effect2_dropShadow_1284_337" result="shape"/>
</filter>
<filter id="filter1_dd_1284_337" x="-0.81958" y="7.00574" width="49.325" height="49.5446" filterUnits="userSpaceOnUse" color-interpolation-filters="sRGB">
<feFlood flood-opacity="0" result="BackgroundImageFix"/>
<feColorMatrix in="SourceAlpha" type="matrix" values="0 0 0 0 0 0 0 0 0 0 0 0 0 0 0 0 0 0 127 0" result="hardAlpha"/>
<feOffset dy="4"/>
<feGaussianBlur stdDeviation="2"/>
<feColorMatrix type="matrix" values="0 0 0 0 0 0 0 0 0 0 0 0 0 0 0 0 0 0 0.3 0"/>
<feBlend mode="normal" in2="BackgroundImageFix" result="effect1_dropShadow_1284_337"/>
<feColorMatrix in="SourceAlpha" type="matrix" values="0 0 0 0 0 0 0 0 0 0 0 0 0 0 0 0 0 0 127 0" result="hardAlpha"/>
<feMorphology radius="6" operator="dilate" in="SourceAlpha" result="effect2_dropShadow_1284_337"/>
<feOffset dy="8"/>
<feGaussianBlur stdDeviation="6"/>
<feColorMatrix type="matrix" values="0 0 0 0 0 0 0 0 0 0 0 0 0 0 0 0 0 0 0.15 0"/>
<feBlend mode="normal" in2="effect1_dropShadow_1284_337" result="effect2_dropShadow_1284_337"/>
<feBlend mode="normal" in="SourceGraphic" in2="effect2_dropShadow_1284_337" result="shape"/>
</filter>
<clipPath id="clip0_1284_337">
<rect width="47" height="48" fill="white"/>
</clipPath>
</defs>
</svg>
