<svg width="18" height="17" viewBox="0 0 18 17" fill="none" xmlns="http://www.w3.org/2000/svg">
<g clip-path="url(#clip0_1283_424)">
<path d="M8.90723 10.4728C10.1371 10.4728 11.134 9.53505 11.134 8.37826C11.134 7.22146 10.1371 6.28369 8.90723 6.28369C7.6774 6.28369 6.68042 7.22146 6.68042 8.37826C6.68042 9.53505 7.6774 10.4728 8.90723 10.4728Z" stroke="white" stroke-width="2" stroke-linecap="round" stroke-linejoin="round"/>
<path d="M14.3999 10.4728C14.3011 10.6834 14.2716 10.917 14.3153 11.1435C14.359 11.37 14.4737 11.579 14.6449 11.7435L14.6894 11.7854C14.8274 11.9151 14.9369 12.0691 15.0116 12.2386C15.0863 12.4081 15.1248 12.5898 15.1248 12.7733C15.1248 12.9569 15.0863 13.1386 15.0116 13.3081C14.9369 13.4776 14.8274 13.6316 14.6894 13.7613C14.5515 13.8911 14.3878 13.9941 14.2076 14.0644C14.0274 14.1347 13.8342 14.1708 13.6391 14.1708C13.444 14.1708 13.2508 14.1347 13.0706 14.0644C12.8904 13.9941 12.7267 13.8911 12.5888 13.7613L12.5442 13.7194C12.3693 13.5584 12.1471 13.4505 11.9063 13.4094C11.6655 13.3683 11.4172 13.3961 11.1933 13.489C10.9738 13.5775 10.7865 13.7245 10.6546 13.9118C10.5228 14.0991 10.452 14.3186 10.451 14.5433V14.6619C10.451 15.0323 10.2946 15.3875 10.0162 15.6493C9.73782 15.9112 9.36022 16.0583 8.96649 16.0583C8.57277 16.0583 8.19517 15.9112 7.91676 15.6493C7.63836 15.3875 7.48195 15.0323 7.48195 14.6619V14.5991C7.4762 14.368 7.39668 14.1439 7.25371 13.9559C7.11074 13.7679 6.91095 13.6246 6.6803 13.5448C6.45642 13.4519 6.20807 13.4242 5.96728 13.4652C5.72649 13.5063 5.5043 13.6143 5.32936 13.7752L5.28483 13.8171C5.14695 13.947 4.98323 14.05 4.803 14.1202C4.62278 14.1905 4.42961 14.2267 4.23451 14.2267C4.03942 14.2267 3.84624 14.1905 3.66602 14.1202C3.4858 14.05 3.32207 13.947 3.1842 13.8171C3.04617 13.6875 2.93667 13.5334 2.86196 13.3639C2.78726 13.1944 2.7488 13.0127 2.7488 12.8292C2.7488 12.6457 2.78726 12.464 2.86196 12.2945C2.93667 12.125 3.04617 11.971 3.1842 11.8413L3.22874 11.7994C3.39986 11.6348 3.51465 11.4258 3.55831 11.1993C3.60197 10.9729 3.57249 10.7393 3.47369 10.5287C3.37959 10.3222 3.22336 10.1461 3.02421 10.022C2.82507 9.89795 2.59171 9.83138 2.35286 9.83048H2.22667C1.83294 9.83048 1.45534 9.68337 1.17694 9.42149C0.898533 9.15962 0.742126 8.80445 0.742126 8.43411C0.742126 8.06376 0.898533 7.70859 1.17694 7.44672C1.45534 7.18485 1.83294 7.03773 2.22667 7.03773H2.29347C2.53916 7.03233 2.77744 6.95752 2.97733 6.82304C3.17722 6.68857 3.32947 6.50064 3.4143 6.28369C3.51311 6.0731 3.54259 5.8395 3.49893 5.61302C3.45527 5.38653 3.34047 5.17753 3.16935 5.01298L3.12482 4.97109C2.98679 4.84141 2.87729 4.6874 2.80258 4.51789C2.72787 4.34837 2.68942 4.16666 2.68942 3.98316C2.68942 3.79965 2.72787 3.61795 2.80258 3.44843C2.87729 3.27891 2.98679 3.12491 3.12482 2.99522C3.26269 2.86539 3.42642 2.7624 3.60664 2.69212C3.78686 2.62185 3.98004 2.58568 4.17513 2.58568C4.37022 2.58568 4.5634 2.62185 4.74362 2.69212C4.92384 2.7624 5.08757 2.86539 5.22545 2.99522L5.26998 3.03711C5.44492 3.19807 5.66711 3.30604 5.9079 3.34711C6.14869 3.38818 6.39704 3.36045 6.62092 3.26751H6.6803C6.89984 3.17901 7.08707 3.03205 7.21896 2.84474C7.35084 2.65742 7.42162 2.43792 7.42257 2.21325V2.09456C7.42257 1.72422 7.57898 1.36904 7.85738 1.10717C8.13579 0.845299 8.51339 0.698181 8.90711 0.698181C9.30084 0.698181 9.67844 0.845299 9.95684 1.10717C10.2352 1.36904 10.3917 1.72422 10.3917 2.09456V2.15739C10.3926 2.38206 10.4634 2.60156 10.5953 2.78888C10.7271 2.9762 10.9144 3.12315 11.1339 3.21166C11.3578 3.3046 11.6062 3.33232 11.8469 3.29126C12.0877 3.25019 12.3099 3.14221 12.4849 2.98126L12.5294 2.93937C12.6673 2.80954 12.831 2.70654 13.0112 2.63627C13.1914 2.566 13.3846 2.52983 13.5797 2.52983C13.7748 2.52983 13.968 2.566 14.1482 2.63627C14.3284 2.70654 14.4922 2.80954 14.63 2.93937C14.7681 3.06905 14.8776 3.22306 14.9523 3.39257C15.027 3.56209 15.0654 3.7438 15.0654 3.9273C15.0654 4.11081 15.027 4.29251 14.9523 4.46203C14.8776 4.63155 14.7681 4.78555 14.63 4.91524L14.5855 4.95713C14.4144 5.12168 14.2996 5.33067 14.2559 5.55716C14.2123 5.78365 14.2417 6.01725 14.3405 6.22783V6.28369C14.4346 6.49019 14.5909 6.66631 14.79 6.79036C14.9892 6.91441 15.2225 6.98098 15.4614 6.98188H15.5876C15.9813 6.98188 16.3589 7.12899 16.6373 7.39086C16.9157 7.65274 17.0721 8.00791 17.0721 8.37825C17.0721 8.74859 16.9157 9.10377 16.6373 9.36564C16.3589 9.62751 15.9813 9.77463 15.5876 9.77463H15.5208C15.2819 9.77552 15.0485 9.8421 14.8494 9.96615C14.6502 10.0902 14.494 10.2663 14.3999 10.4728Z" stroke="#C2BBBB" stroke-width="2" stroke-linecap="round" stroke-linejoin="round"/>
</g>
<defs>
<clipPath id="clip0_1283_424">
<rect width="17.8145" height="16.7565" fill="white"/>
</clipPath>
</defs>
</svg>
