<svg width="18" height="17" viewBox="0 0 18 17" fill="none" xmlns="http://www.w3.org/2000/svg">
<g clip-path="url(#clip0_1284_324)">
<path d="M8.90723 10.4728C10.1371 10.4728 11.134 9.53505 11.134 8.37826C11.134 7.22146 10.1371 6.28369 8.90723 6.28369C7.6774 6.28369 6.68042 7.22146 6.68042 8.37826C6.68042 9.53505 7.6774 10.4728 8.90723 10.4728Z" stroke="white" stroke-width="2" stroke-linecap="round" stroke-linejoin="round"/>
<path d="M14.4 10.4728C14.3012 10.6834 14.2717 10.917 14.3154 11.1435C14.359 11.37 14.4738 11.579 14.6449 11.7435L14.6895 11.7854C14.8275 11.9151 14.937 12.0691 15.0117 12.2386C15.0864 12.4081 15.1249 12.5898 15.1249 12.7733C15.1249 12.9569 15.0864 13.1386 15.0117 13.3081C14.937 13.4776 14.8275 13.6316 14.6895 13.7613C14.5516 13.8911 14.3879 13.9941 14.2076 14.0644C14.0274 14.1347 13.8342 14.1708 13.6392 14.1708C13.4441 14.1708 13.2509 14.1347 13.0707 14.0644C12.8904 13.9941 12.7267 13.8911 12.5888 13.7613L12.5443 13.7194C12.3694 13.5584 12.1472 13.4505 11.9064 13.4094C11.6656 13.3683 11.4172 13.3961 11.1934 13.489C10.9738 13.5775 10.7866 13.7245 10.6547 13.9118C10.5228 14.0991 10.4521 14.3186 10.4511 14.5433V14.6619C10.4511 15.0323 10.2947 15.3875 10.0163 15.6493C9.73788 15.9112 9.36028 16.0583 8.96656 16.0583C8.57283 16.0583 8.19523 15.9112 7.91683 15.6493C7.63842 15.3875 7.48201 15.0323 7.48201 14.6619V14.5991C7.47626 14.368 7.39674 14.1439 7.25377 13.9559C7.1108 13.7679 6.91101 13.6246 6.68036 13.5448C6.45648 13.4519 6.20813 13.4242 5.96734 13.4652C5.72655 13.5063 5.50436 13.6143 5.32942 13.7752L5.28489 13.8171C5.14701 13.947 4.98329 14.05 4.80307 14.1202C4.62284 14.1905 4.42967 14.2267 4.23457 14.2267C4.03948 14.2267 3.8463 14.1905 3.66608 14.1202C3.48586 14.05 3.32213 13.947 3.18426 13.8171C3.04623 13.6875 2.93673 13.5334 2.86203 13.3639C2.78732 13.1944 2.74886 13.0127 2.74886 12.8292C2.74886 12.6457 2.78732 12.464 2.86203 12.2945C2.93673 12.125 3.04623 11.971 3.18426 11.8413L3.2288 11.7994C3.39992 11.6348 3.51471 11.4258 3.55837 11.1993C3.60203 10.9729 3.57255 10.7393 3.47375 10.5287C3.37965 10.3222 3.22342 10.1461 3.02428 10.022C2.82513 9.89795 2.59177 9.83138 2.35292 9.83048H2.22673C1.83301 9.83048 1.45541 9.68337 1.177 9.42149C0.898594 9.15962 0.742188 8.80445 0.742188 8.43411C0.742188 8.06376 0.898594 7.70859 1.177 7.44672C1.45541 7.18485 1.83301 7.03773 2.22673 7.03773H2.29353C2.53922 7.03233 2.7775 6.95752 2.97739 6.82304C3.17728 6.68857 3.32953 6.50064 3.41436 6.28369C3.51317 6.0731 3.54265 5.8395 3.49899 5.61302C3.45533 5.38653 3.34054 5.17753 3.16942 5.01298L3.12488 4.97109C2.98685 4.84141 2.87735 4.6874 2.80264 4.51789C2.72794 4.34837 2.68948 4.16666 2.68948 3.98316C2.68948 3.79965 2.72794 3.61795 2.80264 3.44843C2.87735 3.27891 2.98685 3.12491 3.12488 2.99522C3.26275 2.86539 3.42648 2.7624 3.6067 2.69212C3.78692 2.62185 3.9801 2.58568 4.17519 2.58568C4.37028 2.58568 4.56346 2.62185 4.74368 2.69212C4.9239 2.7624 5.08763 2.86539 5.22551 2.99522L5.27004 3.03711C5.44498 3.19807 5.66717 3.30604 5.90796 3.34711C6.14875 3.38818 6.3971 3.36045 6.62098 3.26751H6.68036C6.8999 3.17901 7.08714 3.03205 7.21902 2.84474C7.3509 2.65742 7.42168 2.43792 7.42263 2.21325V2.09456C7.42263 1.72422 7.57904 1.36904 7.85744 1.10717C8.13585 0.845299 8.51345 0.698181 8.90717 0.698181C9.3009 0.698181 9.6785 0.845299 9.9569 1.10717C10.2353 1.36904 10.3917 1.72422 10.3917 2.09456V2.15739C10.3927 2.38206 10.4634 2.60156 10.5953 2.78888C10.7272 2.9762 10.9144 3.12315 11.134 3.21166C11.3579 3.3046 11.6062 3.33232 11.847 3.29126C12.0878 3.25019 12.31 3.14221 12.4849 2.98126L12.5295 2.93937C12.6673 2.80954 12.8311 2.70654 13.0113 2.63627C13.1915 2.566 13.3847 2.52983 13.5798 2.52983C13.7749 2.52983 13.968 2.566 14.1483 2.63627C14.3285 2.70654 14.4922 2.80954 14.6301 2.93937C14.7681 3.06905 14.8776 3.22306 14.9523 3.39257C15.027 3.56209 15.0655 3.7438 15.0655 3.9273C15.0655 4.11081 15.027 4.29251 14.9523 4.46203C14.8776 4.63155 14.7681 4.78555 14.6301 4.91524L14.5855 4.95713C14.4144 5.12168 14.2996 5.33067 14.256 5.55716C14.2123 5.78365 14.2418 6.01725 14.3406 6.22783V6.28369C14.4347 6.49019 14.5909 6.66631 14.7901 6.79036C14.9892 6.91441 15.2226 6.98098 15.4614 6.98188H15.5876C15.9813 6.98188 16.3589 7.12899 16.6373 7.39086C16.9158 7.65274 17.0722 8.00791 17.0722 8.37825C17.0722 8.74859 16.9158 9.10377 16.6373 9.36564C16.3589 9.62751 15.9813 9.77463 15.5876 9.77463H15.5208C15.282 9.77552 15.0486 9.8421 14.8495 9.96615C14.6503 10.0902 14.4941 10.2663 14.4 10.4728Z" stroke="#C2BBBB" stroke-width="2" stroke-linecap="round" stroke-linejoin="round"/>
</g>
<defs>
<clipPath id="clip0_1284_324">
<rect width="17.8145" height="16.7565" fill="white"/>
</clipPath>
</defs>
</svg>
