<svg width="18" height="17" viewBox="0 0 18 17" fill="none" xmlns="http://www.w3.org/2000/svg">
<g clip-path="url(#clip0_1304_29)">
<path d="M8.90723 10.4729C10.1371 10.4729 11.134 9.53517 11.134 8.37838C11.134 7.22158 10.1371 6.28381 8.90723 6.28381C7.6774 6.28381 6.68042 7.22158 6.68042 8.37838C6.68042 9.53517 7.6774 10.4729 8.90723 10.4729Z" stroke="white" stroke-width="2" stroke-linecap="round" stroke-linejoin="round"/>
<path d="M14.3999 10.4729C14.3011 10.6835 14.2716 10.9171 14.3153 11.1435C14.359 11.37 14.4737 11.579 14.6449 11.7436L14.6894 11.7855C14.8274 11.9152 14.9369 12.0692 15.0116 12.2387C15.0863 12.4082 15.1248 12.5899 15.1248 12.7734C15.1248 12.9569 15.0863 13.1386 15.0116 13.3081C14.9369 13.4777 14.8274 13.6317 14.6894 13.7613C14.5515 13.8912 14.3878 13.9942 14.2076 14.0644C14.0274 14.1347 13.8342 14.1709 13.6391 14.1709C13.444 14.1709 13.2508 14.1347 13.0706 14.0644C12.8904 13.9942 12.7267 13.8912 12.5888 13.7613L12.5442 13.7195C12.3693 13.5585 12.1471 13.4505 11.9063 13.4095C11.6655 13.3684 11.4172 13.3961 11.1933 13.4891C10.9738 13.5776 10.7865 13.7245 10.6546 13.9118C10.5228 14.0991 10.452 14.3186 10.451 14.5433V14.662C10.451 15.0323 10.2946 15.3875 10.0162 15.6494C9.73782 15.9113 9.36022 16.0584 8.96649 16.0584C8.57277 16.0584 8.19517 15.9113 7.91676 15.6494C7.63836 15.3875 7.48195 15.0323 7.48195 14.662V14.5992C7.4762 14.3681 7.39668 14.1439 7.25371 13.9559C7.11074 13.7679 6.91095 13.6247 6.6803 13.5449C6.45642 13.452 6.20807 13.4242 5.96728 13.4653C5.72649 13.5064 5.5043 13.6143 5.32936 13.7753L5.28483 13.8172C5.14695 13.947 4.98323 14.05 4.803 14.1203C4.62278 14.1906 4.42961 14.2267 4.23451 14.2267C4.03942 14.2267 3.84624 14.1906 3.66602 14.1203C3.4858 14.05 3.32207 13.947 3.1842 13.8172C3.04617 13.6875 2.93667 13.5335 2.86196 13.364C2.78726 13.1945 2.7488 13.0128 2.7488 12.8293C2.7488 12.6458 2.78726 12.4641 2.86196 12.2945C2.93667 12.125 3.04617 11.971 3.1842 11.8413L3.22874 11.7994C3.39986 11.6349 3.51465 11.4259 3.55831 11.1994C3.60197 10.9729 3.57249 10.7393 3.47369 10.5287C3.37959 10.3222 3.22336 10.1461 3.02421 10.0221C2.82507 9.89801 2.59171 9.83144 2.35286 9.83054H2.22667C1.83294 9.83054 1.45534 9.68343 1.17694 9.42156C0.898533 9.15968 0.742126 8.80451 0.742126 8.43417C0.742126 8.06383 0.898533 7.70865 1.17694 7.44678C1.45534 7.18491 1.83294 7.03779 2.22667 7.03779H2.29347C2.53916 7.03239 2.77744 6.95758 2.97733 6.82311C3.17722 6.68863 3.32947 6.5007 3.4143 6.28375C3.51311 6.07316 3.54259 5.83957 3.49893 5.61308C3.45527 5.38659 3.34047 5.17759 3.16935 5.01305L3.12482 4.97115C2.98679 4.84147 2.87729 4.68746 2.80258 4.51795C2.72787 4.34843 2.68942 4.16672 2.68942 3.98322C2.68942 3.79971 2.72787 3.61801 2.80258 3.44849C2.87729 3.27897 2.98679 3.12497 3.12482 2.99528C3.26269 2.86545 3.42642 2.76246 3.60664 2.69218C3.78686 2.62191 3.98004 2.58574 4.17513 2.58574C4.37022 2.58574 4.5634 2.62191 4.74362 2.69218C4.92384 2.76246 5.08757 2.86545 5.22545 2.99528L5.26998 3.03717C5.44492 3.19813 5.66711 3.3061 5.9079 3.34717C6.14869 3.38824 6.39704 3.36051 6.62092 3.26757H6.6803C6.89984 3.17907 7.08707 3.03211 7.21896 2.8448C7.35084 2.65748 7.42162 2.43798 7.42257 2.21331V2.09462C7.42257 1.72428 7.57898 1.3691 7.85738 1.10723C8.13579 0.84536 8.51339 0.698242 8.90711 0.698242C9.30084 0.698242 9.67844 0.84536 9.95684 1.10723C10.2352 1.3691 10.3917 1.72428 10.3917 2.09462V2.15746C10.3926 2.38212 10.4634 2.60163 10.5953 2.78894C10.7271 2.97626 10.9144 3.12322 11.1339 3.21172C11.3578 3.30466 11.6062 3.33238 11.8469 3.29132C12.0877 3.25025 12.3099 3.14228 12.4849 2.98132L12.5294 2.93943C12.6673 2.8096 12.831 2.7066 13.0112 2.63633C13.1914 2.56606 13.3846 2.52989 13.5797 2.52989C13.7748 2.52989 13.968 2.56606 14.1482 2.63633C14.3284 2.7066 14.4922 2.8096 14.63 2.93943C14.7681 3.06911 14.8776 3.22312 14.9523 3.39263C15.027 3.56215 15.0654 3.74386 15.0654 3.92736C15.0654 4.11087 15.027 4.29257 14.9523 4.46209C14.8776 4.63161 14.7681 4.78561 14.63 4.9153L14.5855 4.95719C14.4144 5.12174 14.2996 5.33073 14.2559 5.55722C14.2123 5.78371 14.2417 6.01731 14.3405 6.22789V6.28375C14.4346 6.49025 14.5909 6.66637 14.79 6.79042C14.9892 6.91447 15.2225 6.98104 15.4614 6.98194H15.5876C15.9813 6.98194 16.3589 7.12905 16.6373 7.39093C16.9157 7.6528 17.0721 8.00797 17.0721 8.37831C17.0721 8.74866 16.9157 9.10383 16.6373 9.3657C16.3589 9.62757 15.9813 9.77469 15.5876 9.77469H15.5208C15.2819 9.77559 15.0485 9.84216 14.8494 9.96621C14.6502 10.0903 14.494 10.2664 14.3999 10.4729Z" stroke="#C2BBBB" stroke-width="2" stroke-linecap="round" stroke-linejoin="round"/>
</g>
<defs>
<clipPath id="clip0_1304_29">
<rect width="17.8145" height="16.7565" fill="white"/>
</clipPath>
</defs>
</svg>
