<svg width="3" height="13" viewBox="0 0 3 13" fill="none" xmlns="http://www.w3.org/2000/svg">
<path d="M2.91203 10.3499C2.93992 10.393 2.96204 10.4442 2.97714 10.5006C2.99223 10.5569 3 10.6173 3 10.6783C3 10.7393 2.99223 10.7998 2.97714 10.8561C2.96204 10.9125 2.93992 10.9637 2.91203 11.0068L1.71219 12.8638C1.68433 12.907 1.65125 12.9412 1.61483 12.9646C1.57842 12.988 1.53938 13 1.49997 13C1.46055 13 1.42151 12.988 1.3851 12.9646C1.34868 12.9412 1.3156 12.907 1.28774 12.8638L0.0879049 11.0068C0.0316202 10.9197 0 10.8015 0 10.6783C0 10.5551 0.0316202 10.437 0.0879049 10.3499C0.14419 10.2628 0.220528 10.2138 0.300127 10.2138C0.379725 10.2138 0.456064 10.2628 0.512348 10.3499L1.20001 11.4148V1.58523L0.512348 2.65013C0.456064 2.73724 0.379725 2.78618 0.300127 2.78618C0.220528 2.78618 0.14419 2.73724 0.0879049 2.65013C0.0316202 2.56301 0 2.44486 0 2.32166C0 2.19847 0.0316202 2.08031 0.0879049 1.9932L1.28774 0.136161C1.3156 0.092996 1.34868 0.0587526 1.3851 0.035389C1.42151 0.0120255 1.46055 0 1.49997 0C1.53938 0 1.57842 0.0120255 1.61483 0.035389C1.65125 0.0587526 1.68433 0.092996 1.71219 0.136161L2.91203 1.9932C2.96831 2.08031 2.99993 2.19847 2.99993 2.32166C2.99993 2.44486 2.96831 2.56301 2.91203 2.65013C2.85574 2.73724 2.7794 2.78618 2.6998 2.78618C2.62021 2.78618 2.54387 2.73724 2.48758 2.65013L1.79993 1.58523V11.4148L2.48758 10.3499C2.51544 10.3067 2.54852 10.2725 2.58494 10.2491C2.62135 10.2257 2.66039 10.2137 2.6998 10.2137C2.73922 10.2137 2.77826 10.2257 2.81467 10.2491C2.85109 10.2725 2.88417 10.3067 2.91203 10.3499Z" fill="white"/>
</svg>
