<svg width="8" height="7" viewBox="0 0 8 7" fill="none" xmlns="http://www.w3.org/2000/svg">
<path d="M4 0C3.20888 0 2.43552 0.205271 1.77772 0.589856C1.11992 0.974441 0.607234 1.52107 0.304484 2.16061C0.00173314 2.80015 -0.0774802 3.50388 0.0768607 4.18282C0.231202 4.86175 0.612164 5.48539 1.17157 5.97487C1.73098 6.46436 2.44372 6.7977 3.21964 6.93275C3.99556 7.0678 4.79983 6.99848 5.53073 6.73358C6.26164 6.46867 6.88635 6.02007 7.32588 5.44449C7.7654 4.86892 8 4.19223 8 3.5C7.99888 2.57204 7.57709 1.68237 6.82719 1.02621C6.07729 0.370043 5.06052 0.000979939 4 0ZM4 6.46154C3.33059 6.46154 2.67621 6.28785 2.11961 5.96243C1.56301 5.63701 1.1292 5.17448 0.873025 4.63333C0.616851 4.09218 0.549825 3.49671 0.680421 2.92223C0.811017 2.34775 1.13337 1.82005 1.60672 1.40588C2.08006 0.991697 2.68314 0.709638 3.3397 0.595367C3.99625 0.481095 4.67678 0.539743 5.29524 0.763895C5.91369 0.988047 6.4423 1.36763 6.8142 1.85466C7.18611 2.34168 7.38462 2.91426 7.38462 3.5C7.3836 4.28517 7.02668 5.03794 6.39216 5.59314C5.75764 6.14834 4.89734 6.46065 4 6.46154ZM4.61539 5.11538C4.61539 5.18679 4.58297 5.25527 4.52526 5.30576C4.46756 5.35625 4.3893 5.38461 4.30769 5.38461C4.14448 5.38461 3.98796 5.32788 3.87255 5.2269C3.75714 5.12592 3.69231 4.98896 3.69231 4.84615V3.5C3.6107 3.5 3.53244 3.47163 3.47474 3.42114C3.41703 3.37065 3.38462 3.30217 3.38462 3.23077C3.38462 3.15936 3.41703 3.09088 3.47474 3.04039C3.53244 2.9899 3.6107 2.96154 3.69231 2.96154C3.85552 2.96154 4.01204 3.01827 4.12745 3.11925C4.24286 3.22023 4.30769 3.35719 4.30769 3.5V4.84615C4.3893 4.84615 4.46756 4.87452 4.52526 4.92501C4.58297 4.9755 4.61539 5.04398 4.61539 5.11538ZM3.38462 2.01923C3.38462 1.93936 3.41168 1.86128 3.4624 1.79487C3.51311 1.72845 3.5852 1.67669 3.66953 1.64613C3.75387 1.61556 3.84667 1.60756 3.9362 1.62314C4.02573 1.63873 4.10796 1.67719 4.17251 1.73367C4.23706 1.79015 4.28102 1.86211 4.29882 1.94044C4.31663 2.01878 4.30749 2.09998 4.27256 2.17378C4.23763 2.24757 4.17847 2.31064 4.10257 2.35502C4.02667 2.39939 3.93744 2.42308 3.84615 2.42308C3.72375 2.42308 3.60635 2.38053 3.5198 2.30479C3.43324 2.22906 3.38462 2.12634 3.38462 2.01923Z" fill="black"/>
</svg>
