<svg width="47" height="48" viewBox="0 0 47 48" fill="none" xmlns="http://www.w3.org/2000/svg">
<g clip-path="url(#clip0_1335_186)">
<g filter="url(#filter0_dd_1335_186)">
<path fill-rule="evenodd" clip-rule="evenodd" d="M40.7463 15.2471L39.5273 13.0869C38.4961 11.2591 36.2109 10.6285 34.4186 11.6773C33.5655 12.1906 32.5475 12.3362 31.5892 12.0821C30.6308 11.8279 29.8108 11.1949 29.31 10.3226C28.9877 9.76818 28.8146 9.13667 28.808 8.49196C28.8371 7.45832 28.4553 6.45668 27.7495 5.71522C27.0438 4.97375 26.0742 4.5556 25.0617 4.55603H22.6059C21.6139 4.55603 20.6629 4.95971 19.9631 5.67777C19.2634 6.39583 18.8727 7.36906 18.8775 8.38212C18.8481 10.4737 17.1793 12.1535 15.1311 12.1533C14.4998 12.1466 13.8814 11.9698 13.3386 11.6407C11.5463 10.5919 9.26107 11.2225 8.22986 13.0503L6.92132 15.2471C5.89136 17.0727 6.50038 19.4051 8.28364 20.4645C9.44278 21.148 10.1568 22.4111 10.1568 23.778C10.1568 25.1449 9.44278 26.408 8.28364 27.0915C6.50264 28.1438 5.89296 30.4705 6.92132 32.2906L8.15816 34.4691C8.64132 35.3594 9.45199 36.0165 10.4108 36.2948C11.3695 36.5731 12.3974 36.4497 13.2669 35.9519C14.1216 35.4426 15.1401 35.303 16.0961 35.5643C17.0521 35.8255 17.8662 36.466 18.3576 37.3432C18.6798 37.8977 18.853 38.5292 18.8595 39.1739C18.8595 41.287 20.5368 43 22.6059 43H25.0617C27.1238 43 28.7982 41.2981 28.808 39.1922C28.8032 38.1759 29.1964 37.1999 29.9 36.4813C30.6037 35.7627 31.5594 35.3612 32.5544 35.3661C33.1842 35.3833 33.8 35.5594 34.3469 35.8787C36.1345 36.9306 38.4183 36.3086 39.4556 34.4874L40.7463 32.2906C41.2458 31.4149 41.3829 30.3719 41.1272 29.3926C40.8715 28.4134 40.2441 27.5786 39.3839 27.0732C38.5238 26.5678 37.8963 25.733 37.6406 24.7538C37.3849 23.7745 37.5221 22.7315 38.0216 21.8558C38.3465 21.2765 38.8168 20.7963 39.3839 20.4645C41.1565 19.4057 41.7641 17.0869 40.7463 15.2654V15.2471Z" stroke="#C2BBBB" stroke-width="3" stroke-linecap="round" stroke-linejoin="round"/>
</g>
<g opacity="0.4" filter="url(#filter1_dd_1335_186)">
<path d="M23.8426 29.0504C26.6938 29.0504 29.0051 26.6899 29.0051 23.778C29.0051 20.8662 26.6938 18.5057 23.8426 18.5057C20.9915 18.5057 18.6802 20.8662 18.6802 23.778C18.6802 26.6899 20.9915 29.0504 23.8426 29.0504Z" stroke="#C2BBBB" stroke-width="3" stroke-linecap="round" stroke-linejoin="round"/>
</g>
</g>
<defs>
<filter id="filter0_dd_1335_186" x="-13.0793" y="-6.94397" width="73.8325" height="77.444" filterUnits="userSpaceOnUse" color-interpolation-filters="sRGB">
<feFlood flood-opacity="0" result="BackgroundImageFix"/>
<feColorMatrix in="SourceAlpha" type="matrix" values="0 0 0 0 0 0 0 0 0 0 0 0 0 0 0 0 0 0 127 0" result="hardAlpha"/>
<feOffset dy="4"/>
<feGaussianBlur stdDeviation="2"/>
<feColorMatrix type="matrix" values="0 0 0 0 0 0 0 0 0 0 0 0 0 0 0 0 0 0 0.3 0"/>
<feBlend mode="normal" in2="BackgroundImageFix" result="effect1_dropShadow_1335_186"/>
<feColorMatrix in="SourceAlpha" type="matrix" values="0 0 0 0 0 0 0 0 0 0 0 0 0 0 0 0 0 0 127 0" result="hardAlpha"/>
<feMorphology radius="6" operator="dilate" in="SourceAlpha" result="effect2_dropShadow_1335_186"/>
<feOffset dy="8"/>
<feGaussianBlur stdDeviation="6"/>
<feColorMatrix type="matrix" values="0 0 0 0 0 0 0 0 0 0 0 0 0 0 0 0 0 0 0.15 0"/>
<feBlend mode="normal" in2="effect1_dropShadow_1335_186" result="effect2_dropShadow_1335_186"/>
<feBlend mode="normal" in="SourceGraphic" in2="effect2_dropShadow_1335_186" result="shape"/>
</filter>
<filter id="filter1_dd_1335_186" x="-0.819824" y="7.00574" width="49.325" height="49.5447" filterUnits="userSpaceOnUse" color-interpolation-filters="sRGB">
<feFlood flood-opacity="0" result="BackgroundImageFix"/>
<feColorMatrix in="SourceAlpha" type="matrix" values="0 0 0 0 0 0 0 0 0 0 0 0 0 0 0 0 0 0 127 0" result="hardAlpha"/>
<feOffset dy="4"/>
<feGaussianBlur stdDeviation="2"/>
<feColorMatrix type="matrix" values="0 0 0 0 0 0 0 0 0 0 0 0 0 0 0 0 0 0 0.3 0"/>
<feBlend mode="normal" in2="BackgroundImageFix" result="effect1_dropShadow_1335_186"/>
<feColorMatrix in="SourceAlpha" type="matrix" values="0 0 0 0 0 0 0 0 0 0 0 0 0 0 0 0 0 0 127 0" result="hardAlpha"/>
<feMorphology radius="6" operator="dilate" in="SourceAlpha" result="effect2_dropShadow_1335_186"/>
<feOffset dy="8"/>
<feGaussianBlur stdDeviation="6"/>
<feColorMatrix type="matrix" values="0 0 0 0 0 0 0 0 0 0 0 0 0 0 0 0 0 0 0.15 0"/>
<feBlend mode="normal" in2="effect1_dropShadow_1335_186" result="effect2_dropShadow_1335_186"/>
<feBlend mode="normal" in="SourceGraphic" in2="effect2_dropShadow_1335_186" result="shape"/>
</filter>
<clipPath id="clip0_1335_186">
<rect width="47" height="48" fill="white"/>
</clipPath>
</defs>
</svg>
