<svg width="18" height="17" viewBox="0 0 18 17" fill="none" xmlns="http://www.w3.org/2000/svg">
<g clip-path="url(#clip0_1335_173)">
<path d="M8.90723 10.4729C10.1371 10.4729 11.134 9.53517 11.134 8.37838C11.134 7.22158 10.1371 6.28381 8.90723 6.28381C7.6774 6.28381 6.68042 7.22158 6.68042 8.37838C6.68042 9.53517 7.6774 10.4729 8.90723 10.4729Z" stroke="white" stroke-width="2" stroke-linecap="round" stroke-linejoin="round"/>
<path d="M14.4 10.4729C14.3012 10.6835 14.2717 10.9171 14.3154 11.1435C14.359 11.37 14.4738 11.579 14.6449 11.7436L14.6895 11.7855C14.8275 11.9152 14.937 12.0692 15.0117 12.2387C15.0864 12.4082 15.1249 12.5899 15.1249 12.7734C15.1249 12.9569 15.0864 13.1386 15.0117 13.3081C14.937 13.4777 14.8275 13.6317 14.6895 13.7613C14.5516 13.8912 14.3879 13.9942 14.2076 14.0644C14.0274 14.1347 13.8342 14.1709 13.6392 14.1709C13.4441 14.1709 13.2509 14.1347 13.0707 14.0644C12.8904 13.9942 12.7267 13.8912 12.5888 13.7613L12.5443 13.7195C12.3694 13.5585 12.1472 13.4505 11.9064 13.4095C11.6656 13.3684 11.4172 13.3961 11.1934 13.4891C10.9738 13.5776 10.7866 13.7245 10.6547 13.9118C10.5228 14.0991 10.4521 14.3186 10.4511 14.5433V14.662C10.4511 15.0323 10.2947 15.3875 10.0163 15.6494C9.73788 15.9113 9.36028 16.0584 8.96656 16.0584C8.57283 16.0584 8.19523 15.9113 7.91683 15.6494C7.63842 15.3875 7.48201 15.0323 7.48201 14.662V14.5992C7.47626 14.3681 7.39674 14.1439 7.25377 13.9559C7.1108 13.7679 6.91101 13.6247 6.68036 13.5449C6.45648 13.452 6.20813 13.4242 5.96734 13.4653C5.72655 13.5064 5.50436 13.6143 5.32942 13.7753L5.28489 13.8172C5.14701 13.947 4.98329 14.05 4.80307 14.1203C4.62284 14.1906 4.42967 14.2267 4.23457 14.2267C4.03948 14.2267 3.8463 14.1906 3.66608 14.1203C3.48586 14.05 3.32213 13.947 3.18426 13.8172C3.04623 13.6875 2.93673 13.5335 2.86203 13.364C2.78732 13.1945 2.74886 13.0128 2.74886 12.8293C2.74886 12.6458 2.78732 12.4641 2.86203 12.2945C2.93673 12.125 3.04623 11.971 3.18426 11.8413L3.2288 11.7994C3.39992 11.6349 3.51471 11.4259 3.55837 11.1994C3.60203 10.9729 3.57255 10.7393 3.47375 10.5287C3.37965 10.3222 3.22342 10.1461 3.02428 10.0221C2.82513 9.89801 2.59177 9.83144 2.35292 9.83054H2.22673C1.83301 9.83054 1.45541 9.68343 1.177 9.42156C0.898594 9.15968 0.742188 8.80451 0.742188 8.43417C0.742188 8.06383 0.898594 7.70865 1.177 7.44678C1.45541 7.18491 1.83301 7.03779 2.22673 7.03779H2.29353C2.53922 7.03239 2.7775 6.95758 2.97739 6.82311C3.17728 6.68863 3.32953 6.5007 3.41436 6.28375C3.51317 6.07316 3.54265 5.83957 3.49899 5.61308C3.45533 5.38659 3.34054 5.17759 3.16942 5.01305L3.12488 4.97115C2.98685 4.84147 2.87735 4.68746 2.80264 4.51795C2.72794 4.34843 2.68948 4.16672 2.68948 3.98322C2.68948 3.79971 2.72794 3.61801 2.80264 3.44849C2.87735 3.27897 2.98685 3.12497 3.12488 2.99528C3.26275 2.86545 3.42648 2.76246 3.6067 2.69218C3.78692 2.62191 3.9801 2.58574 4.17519 2.58574C4.37028 2.58574 4.56346 2.62191 4.74368 2.69218C4.9239 2.76246 5.08763 2.86545 5.22551 2.99528L5.27004 3.03717C5.44498 3.19813 5.66717 3.3061 5.90796 3.34717C6.14875 3.38824 6.3971 3.36051 6.62098 3.26757H6.68036C6.8999 3.17907 7.08714 3.03211 7.21902 2.8448C7.3509 2.65748 7.42168 2.43798 7.42263 2.21331V2.09462C7.42263 1.72428 7.57904 1.3691 7.85744 1.10723C8.13585 0.84536 8.51345 0.698242 8.90717 0.698242C9.3009 0.698242 9.6785 0.84536 9.9569 1.10723C10.2353 1.3691 10.3917 1.72428 10.3917 2.09462V2.15746C10.3927 2.38212 10.4634 2.60163 10.5953 2.78894C10.7272 2.97626 10.9144 3.12322 11.134 3.21172C11.3579 3.30466 11.6062 3.33238 11.847 3.29132C12.0878 3.25025 12.31 3.14228 12.4849 2.98132L12.5295 2.93943C12.6673 2.8096 12.8311 2.7066 13.0113 2.63633C13.1915 2.56606 13.3847 2.52989 13.5798 2.52989C13.7749 2.52989 13.968 2.56606 14.1483 2.63633C14.3285 2.7066 14.4922 2.8096 14.6301 2.93943C14.7681 3.06911 14.8776 3.22312 14.9523 3.39263C15.027 3.56215 15.0655 3.74386 15.0655 3.92736C15.0655 4.11087 15.027 4.29257 14.9523 4.46209C14.8776 4.63161 14.7681 4.78561 14.6301 4.9153L14.5855 4.95719C14.4144 5.12174 14.2996 5.33073 14.256 5.55722C14.2123 5.78371 14.2418 6.01731 14.3406 6.22789V6.28375C14.4347 6.49025 14.5909 6.66637 14.7901 6.79042C14.9892 6.91447 15.2226 6.98104 15.4614 6.98194H15.5876C15.9813 6.98194 16.3589 7.12905 16.6373 7.39093C16.9158 7.6528 17.0722 8.00797 17.0722 8.37831C17.0722 8.74866 16.9158 9.10383 16.6373 9.3657C16.3589 9.62757 15.9813 9.77469 15.5876 9.77469H15.5208C15.282 9.77559 15.0486 9.84216 14.8495 9.96621C14.6503 10.0903 14.4941 10.2664 14.4 10.4729Z" stroke="#C2BBBB" stroke-width="2" stroke-linecap="round" stroke-linejoin="round"/>
</g>
<defs>
<clipPath id="clip0_1335_173">
<rect width="17.8145" height="16.7565" fill="white"/>
</clipPath>
</defs>
</svg>
